<svg width="512" height="512" viewBox="0 0 512 512" xmlns="http://www.w3.org/2000/svg">
  <defs>
    <linearGradient id="bgGradient" x1="0%" y1="0%" x2="100%" y2="100%">
      <stop offset="0%" style="stop-color:#2563eb;stop-opacity:1" />
      <stop offset="100%" style="stop-color:#1e40af;stop-opacity:1" />
    </linearGradient>
  </defs>

  <!-- Background rounded square -->
  <rect x="64" y="64" width="384" height="384" rx="80" ry="80" fill="url(#bgGradient)" />

  <!-- Book/collection icon -->
  <path d="M160 160 L160 352 L352 352 L352 160 Z" fill="none" stroke="white" stroke-width="24" stroke-linecap="round" stroke-linejoin="round" />
  <path d="M160 180 L320 180" stroke="white" stroke-width="16" stroke-linecap="round" />
  <path d="M160 220 L320 220" stroke="white" stroke-width="16" stroke-linecap="round" />
  <path d="M160 260 L320 260" stroke="white" stroke-width="16" stroke-linecap="round" />
  <path d="M160 300 L280 300" stroke="white" stroke-width="16" stroke-linecap="round" />

  <!-- Gear/cog on corner for "management" -->
  <circle cx="320" cy="320" r="48" fill="white" />
  <circle cx="320" cy="320" r="20" fill="url(#bgGradient)" />
  <rect x="308" y="272" width="24" height="16" rx="8" fill="url(#bgGradient)" />
  <rect x="308" y="368" width="24" height="16" rx="8" fill="url(#bgGradient)" />
  <rect x="272" y="308" width="16" height="24" rx="8" fill="url(#bgGradient)" />
  <rect x="368" y="308" width="16" height="24" rx="8" fill="url(#bgGradient)" />
</svg>
